HIERARCHY
ROOT Hips
{
    OFFSET 0.0 0.0 0.0
    CHANNELS 6 Xposition Yposition Zposition Zrotation Xrotation Yrotation
    JOINT LeftUpLeg
    {
        OFFSET 12.95772516416217 0.0 0.0
        CHANNELS 3 Zrotation Xrotation Yrotation
        JOINT LeftLeg
        {
            OFFSET 0.0 0.0 -63.68578459073917
            CHANNELS 3 Zrotation Xrotation Yrotation
            JOINT LeftFoot
            {
                OFFSET 0.0 0.0 -49.202067629789696
                CHANNELS 3 Zrotation Xrotation Yrotation
                JOINT LeftToeBase
                {
                    OFFSET 0.0 -12.977800533259911 0.0
                    CHANNELS 3 Zrotation Xrotation Yrotation
                    End Site
                    {
                        OFFSET 0 0 0
                    }
                }
            }
        }
    }
    JOINT RightUpLeg
    {
        OFFSET -12.95772516416217 0.0 0.0
        CHANNELS 3 Zrotation Xrotation Yrotation
        JOINT RightLeg
        {
            OFFSET 0.0 0.0 -63.68578459073917
            CHANNELS 3 Zrotation Xrotation Yrotation
            JOINT RightFoot
            {
                OFFSET 0.0 0.0 -49.202067629789696
                CHANNELS 3 Zrotation Xrotation Yrotation
                JOINT RightToeBase
                {
                    OFFSET 0.0 -12.977800533259911 0.0
                    CHANNELS 3 Zrotation Xrotation Yrotation
                    End Site
                    {
                        OFFSET 0 0 0
                    }
                }
            }
        }
    }
    JOINT Spine
    {
        OFFSET 0.0 0.0 11.596714018730163
        CHANNELS 3 Zrotation Xrotation Yrotation
        JOINT Spine1
        {
            OFFSET 0.0 0.0 11.047935599717722
            CHANNELS 3 Zrotation Xrotation Yrotation
            JOINT Spine2
            {
                OFFSET 0.0 0.0 11.047935599717722
                CHANNELS 3 Zrotation Xrotation Yrotation
                JOINT Spine3
                {
                    OFFSET 0.0 0.0 11.047935599717714
                    CHANNELS 3 Zrotation Xrotation Yrotation
                    JOINT Spine4
                    {
                        OFFSET 0.0 0.0 11.047935599717725
                        CHANNELS 3 Zrotation Xrotation Yrotation
                        JOINT RightShoulder
                        {
                            OFFSET -25.44540633104251 0.0 0.0
                            CHANNELS 3 Zrotation Xrotation Yrotation
                            JOINT RightArm
                            {
                                OFFSET -32.8143935109285 0.0 0.0
                                CHANNELS 3 Zrotation Xrotation Yrotation
                                JOINT RightForeArm
                                {
                                    OFFSET -32.9525135053953 0.0 0.0
                                    CHANNELS 3 Zrotation Xrotation Yrotation
                                    JOINT RightHand
                                    {
                                        OFFSET -12.681402564542363 0.0 0.0
                                        CHANNELS 3 Zrotation Xrotation Yrotation
                                        End Site
                                        {
                                            OFFSET 0 0 0
                                        }
                                    }
                                }
                            }
                        }
                        JOINT LeftShoulder
                        {
                            OFFSET 25.44540633104251 0.0 0.0
                            CHANNELS 3 Zrotation Xrotation Yrotation
                            JOINT LeftArm
                            {
                                OFFSET 32.8143935109285 0.0 0.0
                                CHANNELS 3 Zrotation Xrotation Yrotation
                                JOINT LeftForeArm
                                {
                                    OFFSET 32.9525135053953 0.0 0.0
                                    CHANNELS 3 Zrotation Xrotation Yrotation
                                    JOINT LeftHand
                                    {
                                        OFFSET 12.681402564542363 0.0 0.0
                                        CHANNELS 3 Zrotation Xrotation Yrotation
                                        End Site
                                        {
                                            OFFSET 0 0 0
                                        }
                                    }
                                }
                            }
                        }
                        JOINT Neck
                        {
                            OFFSET 0.0 0.0 11.047935590541233
                            CHANNELS 3 Zrotation Xrotation Yrotation
                            JOINT Head
                            {
                                OFFSET 0.0 0.0 27.78631164748348
                                CHANNELS 3 Zrotation Xrotation Yrotation
                                End Site
                                {
                                    OFFSET 0 0 0
                                }
                            }
                        }
                    }
                }
            }
        }
    }
}
MOTION
Frames: 7
Frame Time: 0.03333333333333333
42.04013185501099 24.163423597812656 557.0956535339355 7.9701301242407885 -48.59539075747628 6.78577593638632 13.672355799707056 -37.30478616119604 7.98552290176404 27.434343180557974 -21.9026286954663 28.39457675516802 -117.87732871303704 -1.2722218725854067e-14 48.66246246002708 1.2722218725854067e-14 0.0 0.0 -12.956961080345078 -46.02778629812055 -5.147137571498064 -15.166331407851624 -15.024053288560308 -18.5749383918293 93.19912478178729 -9.54166404439055e-15 -56.065755718059194 0.0 0.0 0.0 6.153036112579222 -40.69526240626292 6.849011268578398 0.0 0.0 0.0 0.0 0.0 0.0 0.0 0.0 0.0 0.0 0.0 0.0 139.44130415822522 -2.212379389003158 -165.09070900298087 121.16451029643835 -3.978714613606301e-15 -5.894868143764806e-15 -6.888140840981305e-15 51.380016228223205 3.3135589811326736e-15 0.0 0.0 0.0 -142.46713054475532 -10.148733328244807 -171.78766494875774 -105.70317905630135 -1.2061228187841297e-14 5.147577293355965e-15 -180.0 -30.68570370742216 180.0 0.0 0.0 7.951386703658792e-16 -7.704313338221199 -7.914348971715936e-15 -6.325245746243117e-16 0.0 0.0 -9.939233379573489e-17
42.04013185501099 24.163423597812656 557.0956535339355 7.9701301242407885 -48.59539075747628 6.78577593638632 13.672355799707056 -37.30478616119604 7.98552290176404 27.434343180557974 -21.9026286954663 28.39457675516802 -117.87732871303704 -1.2722218725854067e-14 48.66246246002708 1.2722218725854067e-14 0.0 0.0 -12.956961080345078 -46.02778629812055 -5.147137571498064 -15.166331407851624 -15.024053288560308 -18.5749383918293 93.19912478178729 -9.54166404439055e-15 -56.065755718059194 0.0 0.0 0.0 6.153036112579222 -40.69526240626292 6.849011268578398 0.0 0.0 0.0 0.0 0.0 0.0 0.0 0.0 0.0 0.0 0.0 0.0 139.44130415822522 -2.212379389003158 -165.09070900298087 121.16451029643835 -3.978714613606301e-15 -5.894868143764806e-15 -6.888140840981305e-15 51.380016228223205 3.3135589811326736e-15 0.0 0.0 0.0 -142.46713054475532 -10.148733328244807 -171.78766494875774 -105.70317905630135 -1.2061228187841297e-14 5.147577293355965e-15 -180.0 -30.68570370742216 180.0 0.0 0.0 7.951386703658792e-16 -7.704313338221199 -7.914348971715936e-15 -6.325245746243117e-16 0.0 0.0 -9.939233379573489e-17
42.04013185501099 24.163423597812656 557.0956535339355 7.9701301242407885 -48.59539075747628 6.78577593638632 13.672355799707056 -37.30478616119604 7.98552290176404 27.434343180557974 -21.9026286954663 28.39457675516802 -117.87732871303704 -1.2722218725854067e-14 48.66246246002708 1.2722218725854067e-14 0.0 0.0 -12.956961080345078 -46.02778629812055 -5.147137571498064 -15.166331407851624 -15.024053288560308 -18.5749383918293 93.19912478178729 -9.54166404439055e-15 -56.065755718059194 0.0 0.0 0.0 6.153036112579222 -40.69526240626292 6.849011268578398 0.0 0.0 0.0 0.0 0.0 0.0 0.0 0.0 0.0 0.0 0.0 0.0 139.44130415822522 -2.212379389003158 -165.09070900298087 121.16451029643835 -3.978714613606301e-15 -5.894868143764806e-15 -6.888140840981305e-15 51.380016228223205 3.3135589811326736e-15 0.0 0.0 0.0 -142.46713054475532 -10.148733328244807 -171.78766494875774 -105.70317905630135 -1.2061228187841297e-14 5.147577293355965e-15 -180.0 -30.68570370742216 180.0 0.0 0.0 7.951386703658792e-16 -7.704313338221199 -7.914348971715936e-15 -6.325245746243117e-16 0.0 0.0 -9.939233379573489e-17
41.810955119133 24.016653263568877 557.0974090576171 8.944605678924358 -48.60960909913559 7.21225708080864 13.649827661272399 -37.09850951206255 8.354209731875919 27.127645076417892 -21.87851225338353 28.55712749646276 -117.27324359222794 6.3611093629270335e-15 49.689137799792796 6.361109362927035e-15 -3.531125038440127e-31 -6.361109362927035e-15 -12.54820169693276 -45.8938222620886 -4.216638759520197 -15.341969803838406 -15.05593313077129 -18.467997349264504 94.29956400358601 -3.1805546814635168e-15 -52.3411878648184 0.0 3.1805546814635168e-15 0.0 6.216536099778691 -40.450688218794504 7.546749620599857 0.0 0.0 0.0 0.0 0.0 0.0 0.0 0.0 0.0 0.0 0.0 0.0 139.91613340527564 -1.32346995293273 -164.96143702297005 122.02366669932725 -7.105577367399997e-15 -3.0068369558459766e-16 0.0 42.9098559680148 0.0 -1.5530052155583578e-18 0.0 0.0 -139.87934389737273 -10.12527138779921 -172.67972864825092 -104.83343328028734 -1.3961675992593501e-14 2.7184858126221864e-15 180.0 -29.886086809129985 -180.0 1.5902773407317584e-15 0.0 0.0 -8.909920492811008 7.467408065144312e-15 8.332400726592508e-17 -4.969616689786745e-17 0.0 0.0
41.760302495956424 24.015164136886597 557.0921052932739 9.141579235799092 -48.62921977885752 7.099056204955898 13.743421968613937 -36.98958857510715 8.641193990793568 27.081417972780034 -21.881357872543738 28.57980386231959 -117.30476579887599 3.1805546814635168e-15 49.90733144525865 0.0 0.0 0.0 -12.32041757794232 -45.894566469222234 -3.7842559554376707 -15.422758176977027 -15.082832982559877 -18.502436682824708 96.75982250011685 1.2722218725854067e-14 -48.86099856624657 0.0 0.0 0.0 6.365666013648772 -40.37046895523488 7.964842569241737 7.951386703658792e-16 0.0 0.0 7.951386703658792e-16 0.0 0.0 7.951386703658792e-16 0.0 0.0 7.951386703658792e-16 0.0 0.0 139.98182322673551 -1.104668950101185 -164.84021896658933 122.3416936110643 -1.7280092695429424e-14 5.010797846083045e-15 -3.4754455066921478e-15 41.32000817051058 4.709641972805342e-15 -7.951386703658792e-16 0.0 0.0 -136.83214354766102 -9.576713327972646 -173.58139870610307 -102.41563017497622 9.915995303334206e-15 -7.97043828485773e-15 180.0 -29.810952042115392 180.0 2.648343778830095e-31 6.3611093629270335e-15 -4.770832022195275e-15 -9.713010638418694 -6.28186580329189e-15 -1.0052536466459493e-17 0.0 0.0 0.0
41.71602480411529 24.025473654270172 557.0858345031738 9.313384536808597 -48.651914332141715 7.025127912987756 13.789164255795672 -36.8946200667369 8.849847046852489 27.04549251990894 -21.882614569419957 28.594606062766893 -116.9042918566851 9.54166404439055e-15 49.610562813480215 0.0 0.0 0.0 -12.159915831865055 -45.882027367842305 -3.449318039587237 -15.529976729379229 -15.131558442123156 -18.56872548907585 100.38486770447575 9.54166404439055e-15 -45.24107838472541 6.361109362927035e-15 -3.1805546814635168e-15 6.361109362927035e-15 6.463566383635701 -40.305002775721306 8.283143641115428 7.951386703658794e-16 5.517382872562698e-33 7.951386703658794e-16 7.951386703658794e-16 5.517382872562698e-33 7.951386703658794e-16 7.951386703658794e-16 5.517382872562698e-33 7.951386703658794e-16 7.951386703658794e-16 5.517382872562698e-33 7.951386703658794e-16 140.086402913787 -0.9076790340476947 -164.71820833547076 122.60842431408932 -1.268686645874191e-14 -3.3187643556451623e-15 0.0 39.53191192622036 0.0 8.945310041616142e-16 0.0 0.0 -134.43744024063298 -9.432247779761155 -173.02274370133856 -100.6069002956927 2.8629907683472136e-15 -6.510216914147799e-15 -180.0 -31.683442757752573 -180.0 -1.5902773407317584e-15 2.2069531490250793e-32 -1.5902773407317584e-15 -9.949972214790357 1.8239072703146314e-14 1.5378046350886672e-15 -2.4848083448933722e-17 9.706282597239735e-20 2.1047145357371133e-38
41.67951121330262 24.03339768648147 557.0791025161743 9.44071534289299 -48.673822157063 6.92362702631954 13.808879265827922 -36.78701895216081 9.040459288222337 27.05252829538985 -21.91590150501679 28.590250909397373 -115.51610122119203 -1.5902773407317584e-14 49.23651504952857 6.3611093629270335e-15 0.0 0.0 -11.996785176819497 -45.86399952635245 -3.133964461468312 -15.64843554818678 -15.199769333713 -18.660335006048495 104.80100354429482 1.2722218725854067e-14 -41.590900593650076 0.0 0.0 0.0 6.561732128436477 -40.246266490284555 8.57660569765929 0.0 0.0 0.0 0.0 0.0 0.0 0.0 0.0 0.0 0.0 0.0 0.0 140.18550722659208 -0.7431512126420246 -164.63458905334963 122.87590667162469 -2.2809832980488508e-15 4.190221160992109e-15 3.817495662741913e-15 38.02982116213414 -1.315580516280827e-15 7.951386703658792e-16 0.0 0.0 -132.26592192088359 -9.200894607541121 -172.94307761425318 -98.99965218372895 2.771400596732961e-15 -6.5497312266478245e-15 180.0 -38.566959019891605 180.0 0.0 0.0 0.0 -10.216071253230492 -2.9196374834367927e-15 6.37114275922681e-16 0.0 0.0 0.0
